<?xml version="1.0" encoding="utf-8" standalone="no"?>
<!DOCTYPE svg PUBLIC "-//W3C//DTD SVG 1.1//EN"
  "http://www.w3.org/Graphics/SVG/1.1/DTD/svg11.dtd">
<svg xmlns:xlink="http://www.w3.org/1999/xlink" width="180pt" height="252pt" viewBox="0 0 180 252" xmlns="http://www.w3.org/2000/svg" version="1.1">
 <metadata>
  <rdf:RDF xmlns:dc="http://purl.org/dc/elements/1.1/" xmlns:cc="http://creativecommons.org/ns#" xmlns:rdf="http://www.w3.org/1999/02/22-rdf-syntax-ns#">
   <cc:Work>
    <dc:type rdf:resource="http://purl.org/dc/dcmitype/StillImage"/>
    <dc:date>2024-03-27T13:09:42.320046</dc:date>
    <dc:format>image/svg+xml</dc:format>
    <dc:creator>
     <cc:Agent>
      <dc:title>Matplotlib v3.7.0, https://matplotlib.org/</dc:title>
     </cc:Agent>
    </dc:creator>
   </cc:Work>
  </rdf:RDF>
 </metadata>
 <defs>
  <style type="text/css">*{stroke-linejoin: round; stroke-linecap: butt}</style>
 </defs>
 <g id="figure_1">
  <g id="patch_1">
   <path d="M 0 252 
L 180 252 
L 180 0 
L 0 0 
z
" style="fill: #ffffff"/>
  </g>
  <g id="axes_1">
   <g id="patch_2">
    <path d="M 51.48024 206.99476 
L 161.72976 206.99476 
L 161.72976 4.917668 
L 51.48024 4.917668 
z
" style="fill: #ffffff"/>
   </g>
   <g id="matplotlib.axis_1">
    <g id="xtick_1">
     <g id="line2d_1">
      <defs>
       <path id="m3ceb26e21f" d="M 0 0 
L 0 3.5 
" style="stroke: #000000; stroke-width: 0.8"/>
      </defs>
      <g>
       <use xlink:href="#m3ceb26e21f" x="56.433382" y="206.99476" style="stroke: #000000; stroke-width: 0.8"/>
      </g>
     </g>
     <g id="text_1">
      <!-- 0 -->
      <g transform="translate(51.343382 226.15226) scale(0.16 -0.16)">
       <defs>
        <path id="DejaVuSans-30" d="M 2034 4250 
Q 1547 4250 1301 3770 
Q 1056 3291 1056 2328 
Q 1056 1369 1301 889 
Q 1547 409 2034 409 
Q 2525 409 2770 889 
Q 3016 1369 3016 2328 
Q 3016 3291 2770 3770 
Q 2525 4250 2034 4250 
z
M 2034 4750 
Q 2819 4750 3233 4129 
Q 3647 3509 3647 2328 
Q 3647 1150 3233 529 
Q 2819 -91 2034 -91 
Q 1250 -91 836 529 
Q 422 1150 422 2328 
Q 422 3509 836 4129 
Q 1250 4750 2034 4750 
z
" transform="scale(0.015625)"/>
       </defs>
       <use xlink:href="#DejaVuSans-30"/>
      </g>
     </g>
    </g>
    <g id="xtick_2">
     <g id="line2d_2">
      <g>
       <use xlink:href="#m3ceb26e21f" x="109.081571" y="206.99476" style="stroke: #000000; stroke-width: 0.8"/>
      </g>
     </g>
     <g id="text_2">
      <!-- 50 -->
      <g transform="translate(98.901571 226.15226) scale(0.16 -0.16)">
       <defs>
        <path id="DejaVuSans-35" d="M 691 4666 
L 3169 4666 
L 3169 4134 
L 1269 4134 
L 1269 2991 
Q 1406 3038 1543 3061 
Q 1681 3084 1819 3084 
Q 2600 3084 3056 2656 
Q 3513 2228 3513 1497 
Q 3513 744 3044 326 
Q 2575 -91 1722 -91 
Q 1428 -91 1123 -41 
Q 819 9 494 109 
L 494 744 
Q 775 591 1075 516 
Q 1375 441 1709 441 
Q 2250 441 2565 725 
Q 2881 1009 2881 1497 
Q 2881 1984 2565 2268 
Q 2250 2553 1709 2553 
Q 1456 2553 1204 2497 
Q 953 2441 691 2322 
L 691 4666 
z
" transform="scale(0.015625)"/>
       </defs>
       <use xlink:href="#DejaVuSans-35"/>
       <use xlink:href="#DejaVuSans-30" x="63.623047"/>
      </g>
     </g>
    </g>
    <g id="xtick_3">
     <g id="line2d_3">
      <g>
       <use xlink:href="#m3ceb26e21f" x="161.72976" y="206.99476" style="stroke: #000000; stroke-width: 0.8"/>
      </g>
     </g>
     <g id="text_3">
      <!-- 100 -->
      <g transform="translate(146.45976 226.15226) scale(0.16 -0.16)">
       <defs>
        <path id="DejaVuSans-31" d="M 794 531 
L 1825 531 
L 1825 4091 
L 703 3866 
L 703 4441 
L 1819 4666 
L 2450 4666 
L 2450 531 
L 3481 531 
L 3481 0 
L 794 0 
L 794 531 
z
" transform="scale(0.015625)"/>
       </defs>
       <use xlink:href="#DejaVuSans-31"/>
       <use xlink:href="#DejaVuSans-30" x="63.623047"/>
       <use xlink:href="#DejaVuSans-30" x="127.246094"/>
      </g>
     </g>
    </g>
    <g id="text_4">
     <!-- d [$\mu$m] -->
     <g transform="translate(79.805 245.63976) scale(0.16 -0.16)">
      <defs>
       <path id="DejaVuSans-64" d="M 2906 2969 
L 2906 4863 
L 3481 4863 
L 3481 0 
L 2906 0 
L 2906 525 
Q 2725 213 2448 61 
Q 2172 -91 1784 -91 
Q 1150 -91 751 415 
Q 353 922 353 1747 
Q 353 2572 751 3078 
Q 1150 3584 1784 3584 
Q 2172 3584 2448 3432 
Q 2725 3281 2906 2969 
z
M 947 1747 
Q 947 1113 1208 752 
Q 1469 391 1925 391 
Q 2381 391 2643 752 
Q 2906 1113 2906 1747 
Q 2906 2381 2643 2742 
Q 2381 3103 1925 3103 
Q 1469 3103 1208 2742 
Q 947 2381 947 1747 
z
" transform="scale(0.015625)"/>
       <path id="DejaVuSans-20" transform="scale(0.015625)"/>
       <path id="DejaVuSans-5b" d="M 550 4863 
L 1875 4863 
L 1875 4416 
L 1125 4416 
L 1125 -397 
L 1875 -397 
L 1875 -844 
L 550 -844 
L 550 4863 
z
" transform="scale(0.015625)"/>
       <path id="DejaVuSans-Oblique-3bc" d="M -84 -1331 
L 856 3500 
L 1434 3500 
L 1009 1322 
Q 997 1256 987 1175 
Q 978 1094 978 1013 
Q 978 722 1161 565 
Q 1344 409 1684 409 
Q 2147 409 2431 671 
Q 2716 934 2816 1459 
L 3213 3500 
L 3788 3500 
L 3266 809 
Q 3253 750 3248 706 
Q 3244 663 3244 628 
Q 3244 531 3283 486 
Q 3322 441 3406 441 
Q 3438 441 3492 456 
Q 3547 472 3647 513 
L 3559 50 
Q 3422 -19 3297 -55 
Q 3172 -91 3053 -91 
Q 2847 -91 2730 40 
Q 2613 172 2613 403 
Q 2438 153 2195 31 
Q 1953 -91 1625 -91 
Q 1334 -91 1117 43 
Q 900 178 831 397 
L 494 -1331 
L -84 -1331 
z
" transform="scale(0.015625)"/>
       <path id="DejaVuSans-6d" d="M 3328 2828 
Q 3544 3216 3844 3400 
Q 4144 3584 4550 3584 
Q 5097 3584 5394 3201 
Q 5691 2819 5691 2113 
L 5691 0 
L 5113 0 
L 5113 2094 
Q 5113 2597 4934 2840 
Q 4756 3084 4391 3084 
Q 3944 3084 3684 2787 
Q 3425 2491 3425 1978 
L 3425 0 
L 2847 0 
L 2847 2094 
Q 2847 2600 2669 2842 
Q 2491 3084 2119 3084 
Q 1678 3084 1418 2786 
Q 1159 2488 1159 1978 
L 1159 0 
L 581 0 
L 581 3500 
L 1159 3500 
L 1159 2956 
Q 1356 3278 1631 3431 
Q 1906 3584 2284 3584 
Q 2666 3584 2933 3390 
Q 3200 3197 3328 2828 
z
" transform="scale(0.015625)"/>
       <path id="DejaVuSans-5d" d="M 1947 4863 
L 1947 -844 
L 622 -844 
L 622 -397 
L 1369 -397 
L 1369 4416 
L 622 4416 
L 622 4863 
L 1947 4863 
z
" transform="scale(0.015625)"/>
      </defs>
      <use xlink:href="#DejaVuSans-64" transform="translate(0 0.015625)"/>
      <use xlink:href="#DejaVuSans-20" transform="translate(63.476562 0.015625)"/>
      <use xlink:href="#DejaVuSans-5b" transform="translate(95.263672 0.015625)"/>
      <use xlink:href="#DejaVuSans-Oblique-3bc" transform="translate(134.277344 0.015625)"/>
      <use xlink:href="#DejaVuSans-6d" transform="translate(197.900391 0.015625)"/>
      <use xlink:href="#DejaVuSans-5d" transform="translate(295.3125 0.015625)"/>
     </g>
    </g>
   </g>
   <g id="matplotlib.axis_2">
    <g id="ytick_1">
     <g id="line2d_4">
      <defs>
       <path id="m5ebc895775" d="M 0 0 
L -3.5 0 
" style="stroke: #000000; stroke-width: 0.8"/>
      </defs>
      <g>
       <use xlink:href="#m5ebc895775" x="51.48024" y="189.307594" style="stroke: #000000; stroke-width: 0.8"/>
      </g>
     </g>
     <g id="text_5">
      <!-- 0 -->
      <g transform="translate(34.30024 195.386344) scale(0.16 -0.16)">
       <use xlink:href="#DejaVuSans-30"/>
      </g>
     </g>
    </g>
    <g id="ytick_2">
     <g id="line2d_5">
      <g>
       <use xlink:href="#m5ebc895775" x="51.48024" y="144.251279" style="stroke: #000000; stroke-width: 0.8"/>
      </g>
     </g>
     <g id="text_6">
      <!-- 20 -->
      <g transform="translate(24.12024 150.330029) scale(0.16 -0.16)">
       <defs>
        <path id="DejaVuSans-32" d="M 1228 531 
L 3431 531 
L 3431 0 
L 469 0 
L 469 531 
Q 828 903 1448 1529 
Q 2069 2156 2228 2338 
Q 2531 2678 2651 2914 
Q 2772 3150 2772 3378 
Q 2772 3750 2511 3984 
Q 2250 4219 1831 4219 
Q 1534 4219 1204 4116 
Q 875 4013 500 3803 
L 500 4441 
Q 881 4594 1212 4672 
Q 1544 4750 1819 4750 
Q 2544 4750 2975 4387 
Q 3406 4025 3406 3419 
Q 3406 3131 3298 2873 
Q 3191 2616 2906 2266 
Q 2828 2175 2409 1742 
Q 1991 1309 1228 531 
z
" transform="scale(0.015625)"/>
       </defs>
       <use xlink:href="#DejaVuSans-32"/>
       <use xlink:href="#DejaVuSans-30" x="63.623047"/>
      </g>
     </g>
    </g>
    <g id="ytick_3">
     <g id="line2d_6">
      <g>
       <use xlink:href="#m5ebc895775" x="51.48024" y="99.194964" style="stroke: #000000; stroke-width: 0.8"/>
      </g>
     </g>
     <g id="text_7">
      <!-- 40 -->
      <g transform="translate(24.12024 105.273714) scale(0.16 -0.16)">
       <defs>
        <path id="DejaVuSans-34" d="M 2419 4116 
L 825 1625 
L 2419 1625 
L 2419 4116 
z
M 2253 4666 
L 3047 4666 
L 3047 1625 
L 3713 1625 
L 3713 1100 
L 3047 1100 
L 3047 0 
L 2419 0 
L 2419 1100 
L 313 1100 
L 313 1709 
L 2253 4666 
z
" transform="scale(0.015625)"/>
       </defs>
       <use xlink:href="#DejaVuSans-34"/>
       <use xlink:href="#DejaVuSans-30" x="63.623047"/>
      </g>
     </g>
    </g>
    <g id="ytick_4">
     <g id="line2d_7">
      <g>
       <use xlink:href="#m5ebc895775" x="51.48024" y="54.13865" style="stroke: #000000; stroke-width: 0.8"/>
      </g>
     </g>
     <g id="text_8">
      <!-- 60 -->
      <g transform="translate(24.12024 60.2174) scale(0.16 -0.16)">
       <defs>
        <path id="DejaVuSans-36" d="M 2113 2584 
Q 1688 2584 1439 2293 
Q 1191 2003 1191 1497 
Q 1191 994 1439 701 
Q 1688 409 2113 409 
Q 2538 409 2786 701 
Q 3034 994 3034 1497 
Q 3034 2003 2786 2293 
Q 2538 2584 2113 2584 
z
M 3366 4563 
L 3366 3988 
Q 3128 4100 2886 4159 
Q 2644 4219 2406 4219 
Q 1781 4219 1451 3797 
Q 1122 3375 1075 2522 
Q 1259 2794 1537 2939 
Q 1816 3084 2150 3084 
Q 2853 3084 3261 2657 
Q 3669 2231 3669 1497 
Q 3669 778 3244 343 
Q 2819 -91 2113 -91 
Q 1303 -91 875 529 
Q 447 1150 447 2328 
Q 447 3434 972 4092 
Q 1497 4750 2381 4750 
Q 2619 4750 2861 4703 
Q 3103 4656 3366 4563 
z
" transform="scale(0.015625)"/>
       </defs>
       <use xlink:href="#DejaVuSans-36"/>
       <use xlink:href="#DejaVuSans-30" x="63.623047"/>
      </g>
     </g>
    </g>
    <g id="ytick_5">
     <g id="line2d_8">
      <g>
       <use xlink:href="#m5ebc895775" x="51.48024" y="9.082335" style="stroke: #000000; stroke-width: 0.8"/>
      </g>
     </g>
     <g id="text_9">
      <!-- 80 -->
      <g transform="translate(24.12024 15.161085) scale(0.16 -0.16)">
       <defs>
        <path id="DejaVuSans-38" d="M 2034 2216 
Q 1584 2216 1326 1975 
Q 1069 1734 1069 1313 
Q 1069 891 1326 650 
Q 1584 409 2034 409 
Q 2484 409 2743 651 
Q 3003 894 3003 1313 
Q 3003 1734 2745 1975 
Q 2488 2216 2034 2216 
z
M 1403 2484 
Q 997 2584 770 2862 
Q 544 3141 544 3541 
Q 544 4100 942 4425 
Q 1341 4750 2034 4750 
Q 2731 4750 3128 4425 
Q 3525 4100 3525 3541 
Q 3525 3141 3298 2862 
Q 3072 2584 2669 2484 
Q 3125 2378 3379 2068 
Q 3634 1759 3634 1313 
Q 3634 634 3220 271 
Q 2806 -91 2034 -91 
Q 1263 -91 848 271 
Q 434 634 434 1313 
Q 434 1759 690 2068 
Q 947 2378 1403 2484 
z
M 1172 3481 
Q 1172 3119 1398 2916 
Q 1625 2713 2034 2713 
Q 2441 2713 2670 2916 
Q 2900 3119 2900 3481 
Q 2900 3844 2670 4047 
Q 2441 4250 2034 4250 
Q 1625 4250 1398 4047 
Q 1172 3844 1172 3481 
z
" transform="scale(0.015625)"/>
       </defs>
       <use xlink:href="#DejaVuSans-38"/>
       <use xlink:href="#DejaVuSans-30" x="63.623047"/>
      </g>
     </g>
    </g>
    <g id="text_10">
     <!-- $V_y$ [$\mu$m/h] -->
     <g transform="translate(15.16024 144.436214) rotate(-90) scale(0.16 -0.16)">
      <defs>
       <path id="DejaVuSans-Oblique-56" d="M 1319 0 
L 500 4666 
L 1119 4666 
L 1797 653 
L 4063 4666 
L 4750 4666 
L 2053 0 
L 1319 0 
z
" transform="scale(0.015625)"/>
       <path id="DejaVuSans-Oblique-79" d="M 1588 -325 
Q 1188 -997 936 -1164 
Q 684 -1331 294 -1331 
L -159 -1331 
L -63 -850 
L 269 -850 
Q 509 -850 678 -719 
Q 847 -588 1056 -206 
L 1234 128 
L 459 3500 
L 1069 3500 
L 1650 819 
L 3256 3500 
L 3859 3500 
L 1588 -325 
z
" transform="scale(0.015625)"/>
       <path id="DejaVuSans-2f" d="M 1625 4666 
L 2156 4666 
L 531 -594 
L 0 -594 
L 1625 4666 
z
" transform="scale(0.015625)"/>
       <path id="DejaVuSans-68" d="M 3513 2113 
L 3513 0 
L 2938 0 
L 2938 2094 
Q 2938 2591 2744 2837 
Q 2550 3084 2163 3084 
Q 1697 3084 1428 2787 
Q 1159 2491 1159 1978 
L 1159 0 
L 581 0 
L 581 4863 
L 1159 4863 
L 1159 2956 
Q 1366 3272 1645 3428 
Q 1925 3584 2291 3584 
Q 2894 3584 3203 3211 
Q 3513 2838 3513 2113 
z
" transform="scale(0.015625)"/>
      </defs>
      <use xlink:href="#DejaVuSans-Oblique-56" transform="translate(0 0.015625)"/>
      <use xlink:href="#DejaVuSans-Oblique-79" transform="translate(68.408203 -16.390625) scale(0.7)"/>
      <use xlink:href="#DejaVuSans-20" transform="translate(112.568359 0.015625)"/>
      <use xlink:href="#DejaVuSans-5b" transform="translate(144.355469 0.015625)"/>
      <use xlink:href="#DejaVuSans-Oblique-3bc" transform="translate(183.369141 0.015625)"/>
      <use xlink:href="#DejaVuSans-6d" transform="translate(246.992188 0.015625)"/>
      <use xlink:href="#DejaVuSans-2f" transform="translate(344.404297 0.015625)"/>
      <use xlink:href="#DejaVuSans-68" transform="translate(378.095703 0.015625)"/>
      <use xlink:href="#DejaVuSans-5d" transform="translate(441.474609 0.015625)"/>
     </g>
    </g>
   </g>
   <g id="line2d_9">
    <path d="M 56.433382 189.286576 
L 63.509298 194.414309 
L 70.585215 187.040001 
L 77.661132 170.973105 
L 84.737048 161.169127 
L 91.812965 149.995408 
L 98.888881 143.778159 
L 105.964798 137.413056 
L 113.040715 132.070044 
L 120.116631 133.679136 
L 127.192548 112.185721 
L 134.268465 103.34719 
L 141.344381 88.866796 
L 148.420298 75.006775 
L 155.496214 47.692693 
" clip-path="url(#pa006fabf82)" style="fill: none; stroke: #000000; stroke-opacity: 0.25; stroke-width: 1.5; stroke-linecap: square"/>
   </g>
   <g id="line2d_10">
    <path d="M 56.433382 189.274803 
L 63.509298 185.470585 
L 70.585215 182.081418 
L 77.661132 178.853153 
L 84.737048 164.282055 
L 91.812965 162.31764 
L 98.888881 154.599764 
L 105.964798 140.018272 
L 113.040715 126.250289 
L 120.116631 120.480351 
L 127.192548 101.217374 
L 134.268465 88.919199 
L 141.344381 71.461136 
L 148.420298 70.126973 
L 155.496214 34.457039 
" clip-path="url(#pa006fabf82)" style="fill: none; stroke: #000000; stroke-opacity: 0.25; stroke-width: 1.5; stroke-linecap: square"/>
   </g>
   <g id="line2d_11">
    <path d="M 56.433382 190.745268 
L 63.509298 195.126692 
L 70.585215 184.524601 
L 77.661132 178.7882 
L 84.737048 172.388297 
L 91.812965 164.256261 
L 98.888881 151.386963 
L 105.964798 141.500195 
L 113.040715 126.782156 
L 120.116631 112.653587 
L 127.192548 95.730408 
L 134.268465 86.610256 
L 141.344381 66.072682 
L 148.420298 56.19635 
L 155.496214 43.647804 
" clip-path="url(#pa006fabf82)" style="fill: none; stroke: #000000; stroke-opacity: 0.25; stroke-width: 1.5; stroke-linecap: square"/>
   </g>
   <g id="line2d_12">
    <path d="M 56.433382 190.700539 
L 63.509298 192.068304 
L 70.585215 185.832653 
L 77.661132 178.557422 
L 84.737048 169.023073 
L 91.812965 154.809709 
L 98.888881 147.098328 
L 105.964798 145.553764 
L 113.040715 119.90287 
L 120.116631 105.295348 
L 127.192548 96.240227 
L 134.268465 78.651798 
L 141.344381 67.388478 
L 148.420298 55.617481 
L 155.496214 43.659461 
" clip-path="url(#pa006fabf82)" style="fill: none; stroke: #000000; stroke-opacity: 0.25; stroke-width: 1.5; stroke-linecap: square"/>
   </g>
   <g id="line2d_13">
    <path d="M 56.433382 189.268283 
L 63.509298 194.945083 
L 70.585215 185.755592 
L 77.661132 168.535635 
L 84.737048 159.138187 
L 91.812965 148.375119 
L 98.888881 137.715391 
L 105.964798 126.729605 
L 113.040715 113.995554 
L 120.116631 103.770737 
L 127.192548 90.653003 
L 134.268465 79.234033 
L 141.344381 64.91864 
L 148.420298 52.322575 
L 155.496214 43.993764 
" clip-path="url(#pa006fabf82)" style="fill: none; stroke: #000000; stroke-opacity: 0.25; stroke-width: 1.5; stroke-linecap: square"/>
   </g>
   <g id="line2d_14">
    <path d="M 56.433382 189.37227 
L 63.509298 181.543868 
L 70.585215 173.273388 
L 77.661132 176.175126 
L 84.737048 169.385253 
L 91.812965 146.499253 
L 98.888881 134.700565 
L 105.964798 124.584192 
L 113.040715 111.642191 
L 120.116631 98.377911 
L 127.192548 87.20694 
L 134.268465 76.05335 
L 141.344381 64.153484 
L 148.420298 51.129083 
L 155.496214 41.17749 
" clip-path="url(#pa006fabf82)" style="fill: none; stroke: #000000; stroke-opacity: 0.25; stroke-width: 1.5; stroke-linecap: square"/>
   </g>
   <g id="line2d_15">
    <path d="M 56.433382 189.29457 
L 63.509298 190.059183 
L 70.585215 178.597188 
L 77.661132 167.772954 
L 84.737048 154.570142 
L 91.812965 142.32262 
L 98.888881 133.595454 
L 105.964798 122.349617 
L 113.040715 108.947971 
L 120.116631 96.42896 
L 127.192548 84.743175 
L 134.268465 71.796934 
L 141.344381 63.096429 
L 148.420298 50.061721 
L 155.496214 37.871996 
" clip-path="url(#pa006fabf82)" style="fill: none; stroke: #000000; stroke-opacity: 0.25; stroke-width: 1.5; stroke-linecap: square"/>
   </g>
   <g id="line2d_16">
    <path d="M 56.433382 189.965721 
L 63.509298 186.70592 
L 70.585215 169.618192 
L 77.661132 169.167112 
L 84.737048 159.288982 
L 91.812965 145.539034 
L 98.888881 136.342467 
L 105.964798 119.885929 
L 113.040715 108.453499 
L 120.116631 97.315201 
L 127.192548 85.952423 
L 134.268465 72.091538 
L 141.344381 62.58846 
L 148.420298 46.979279 
L 155.496214 31.438077 
" clip-path="url(#pa006fabf82)" style="fill: none; stroke: #000000; stroke-opacity: 0.25; stroke-width: 1.5; stroke-linecap: square"/>
   </g>
   <g id="line2d_17">
    <path d="M 56.433382 189.275086 
L 63.509298 189.440053 
L 70.585215 175.620904 
L 77.661132 169.175203 
L 84.737048 158.529543 
L 91.812965 148.358372 
L 98.888881 132.128094 
L 105.964798 119.592797 
L 113.040715 109.049619 
L 120.116631 96.838046 
L 127.192548 83.518275 
L 134.268465 68.557716 
L 141.344381 62.073615 
L 148.420298 52.151384 
L 155.496214 40.46559 
" clip-path="url(#pa006fabf82)" style="fill: none; stroke: #000000; stroke-opacity: 0.25; stroke-width: 1.5; stroke-linecap: square"/>
   </g>
   <g id="line2d_18">
    <path d="M 56.433382 191.088387 
L 63.509298 193.110083 
L 70.585215 185.597302 
L 77.661132 175.010064 
L 84.737048 165.753921 
L 91.812965 160.038499 
L 98.888881 149.771551 
L 105.964798 138.374377 
L 113.040715 133.035819 
L 120.116631 125.518174 
L 127.192548 119.081403 
L 134.268465 101.529801 
L 141.344381 91.106621 
L 148.420298 68.191045 
L 155.496214 64.639963 
" clip-path="url(#pa006fabf82)" style="fill: none; stroke: #000000; stroke-opacity: 0.25; stroke-width: 1.5; stroke-linecap: square"/>
   </g>
   <g id="line2d_19">
    <path d="M 56.433382 189.798496 
L 63.509298 192.449937 
L 70.585215 184.832341 
L 77.661132 174.314803 
L 84.737048 162.814271 
L 91.812965 154.52882 
L 98.888881 143.772381 
L 105.964798 143.843939 
L 113.040715 130.386097 
L 120.116631 120.424026 
L 127.192548 110.200107 
L 134.268465 95.145998 
L 141.344381 81.158011 
L 148.420298 69.683108 
L 155.496214 62.177442 
" clip-path="url(#pa006fabf82)" style="fill: none; stroke: #000000; stroke-opacity: 0.25; stroke-width: 1.5; stroke-linecap: square"/>
   </g>
   <g id="line2d_20">
    <path d="M 56.433382 189.32326 
L 63.509298 196.297478 
L 70.585215 183.788814 
L 77.661132 175.302963 
L 84.737048 166.274801 
L 91.812965 156.00529 
L 98.888881 146.92122 
L 105.964798 138.477199 
L 113.040715 130.322937 
L 120.116631 114.454285 
L 127.192548 104.720163 
L 134.268465 94.637606 
L 141.344381 80.040466 
L 148.420298 68.494212 
L 155.496214 58.58614 
" clip-path="url(#pa006fabf82)" style="fill: none; stroke: #000000; stroke-opacity: 0.25; stroke-width: 1.5; stroke-linecap: square"/>
   </g>
   <g id="line2d_21">
    <path d="M 56.433382 190.841097 
L 63.509298 192.414859 
L 70.585215 186.437108 
L 77.661132 178.736769 
L 84.737048 170.290568 
L 91.812965 156.265516 
L 98.888881 149.163246 
L 105.964798 138.051549 
L 113.040715 124.758019 
L 120.116631 114.491476 
L 127.192548 102.086475 
L 134.268465 90.682358 
L 141.344381 79.67435 
L 148.420298 64.510168 
L 155.496214 58.433254 
" clip-path="url(#pa006fabf82)" style="fill: none; stroke: #000000; stroke-opacity: 0.25; stroke-width: 1.5; stroke-linecap: square"/>
   </g>
   <g id="line2d_22">
    <path d="M 56.433382 189.804498 
L 63.509298 190.293604 
L 70.585215 182.925195 
L 77.661132 174.623946 
L 84.737048 163.240628 
L 91.812965 157.398444 
L 98.888881 146.671467 
L 105.964798 137.372874 
L 113.040715 126.022681 
L 120.116631 113.460712 
L 127.192548 104.093894 
L 134.268465 91.697818 
L 141.344381 84.025568 
L 148.420298 68.051333 
L 155.496214 56.034569 
" clip-path="url(#pa006fabf82)" style="fill: none; stroke: #000000; stroke-opacity: 0.25; stroke-width: 1.5; stroke-linecap: square"/>
   </g>
   <g id="line2d_23">
    <path d="M 56.433382 192.307145 
L 63.509298 191.33679 
L 70.585215 186.216492 
L 77.661132 174.213836 
L 84.737048 166.369793 
L 91.812965 154.836971 
L 98.888881 146.281019 
L 105.964798 134.87533 
L 113.040715 124.660728 
L 120.116631 114.925316 
L 127.192548 103.071333 
L 134.268465 91.831125 
L 141.344381 79.131699 
L 148.420298 67.462155 
L 155.496214 56.99625 
" clip-path="url(#pa006fabf82)" style="fill: none; stroke: #000000; stroke-opacity: 0.25; stroke-width: 1.5; stroke-linecap: square"/>
   </g>
   <g id="line2d_24">
    <path d="M 56.433382 189.245519 
L 63.509298 191.785008 
L 70.585215 188.814985 
L 77.661132 179.578164 
L 84.737048 171.833533 
L 91.812965 154.557995 
L 98.888881 143.729048 
L 105.964798 135.827966 
L 113.040715 125.612323 
L 120.116631 113.707738 
L 127.192548 103.095641 
L 134.268465 91.031443 
L 141.344381 78.510463 
L 148.420298 68.614278 
L 155.496214 60.382159 
" clip-path="url(#pa006fabf82)" style="fill: none; stroke: #000000; stroke-opacity: 0.25; stroke-width: 1.5; stroke-linecap: square"/>
   </g>
   <g id="line2d_25">
    <path d="M 56.433382 189.212423 
L 63.509298 191.870764 
L 70.585215 187.887741 
L 77.661132 180.529124 
L 84.737048 166.505178 
L 91.812965 155.685791 
L 98.888881 146.238025 
L 105.964798 135.497167 
L 113.040715 124.62523 
L 120.116631 113.101234 
L 127.192548 101.455239 
L 134.268465 92.700851 
L 141.344381 77.205749 
L 148.420298 66.175361 
L 155.496214 55.439639 
" clip-path="url(#pa006fabf82)" style="fill: none; stroke: #000000; stroke-opacity: 0.25; stroke-width: 1.5; stroke-linecap: square"/>
   </g>
   <g id="line2d_26">
    <path d="M 56.433382 189.239064 
L 63.509298 190.741897 
L 70.585215 195.753429 
L 77.661132 180.961149 
L 84.737048 169.910712 
L 91.812965 160.236399 
L 98.888881 146.361681 
L 105.964798 138.163005 
L 113.040715 125.614766 
L 120.116631 115.739002 
L 127.192548 101.53102 
L 134.268465 89.854198 
L 141.344381 76.398447 
L 148.420298 65.163536 
L 155.496214 55.582231 
" clip-path="url(#pa006fabf82)" style="fill: none; stroke: #000000; stroke-opacity: 0.25; stroke-width: 1.5; stroke-linecap: square"/>
   </g>
   <g id="line2d_27">
    <path d="M 56.433382 189.335768 
L 63.509298 189.701911 
L 70.585215 183.946861 
L 77.661132 176.743688 
L 84.737048 167.235987 
L 91.812965 158.21939 
L 98.888881 146.795385 
L 105.964798 138.955757 
L 113.040715 129.088251 
L 120.116631 117.770408 
L 127.192548 106.982396 
L 134.268465 95.652571 
L 141.344381 83.672543 
L 148.420298 73.230724 
L 155.496214 62.967803 
" clip-path="url(#pa006fabf82)" style="fill: none; stroke: #000000; stroke-opacity: 0.25; stroke-width: 1.5; stroke-linecap: square"/>
   </g>
   <g id="line2d_28">
    <path d="M 56.433382 193.291224 
L 63.509298 189.81922 
L 70.585215 183.386557 
L 77.661132 175.863535 
L 84.737048 166.327825 
L 91.812965 157.879415 
L 98.888881 147.436509 
L 105.964798 137.683044 
L 113.040715 127.178531 
L 120.116631 116.165902 
L 127.192548 106.375518 
L 134.268465 95.064345 
L 141.344381 82.576049 
L 148.420298 70.138618 
L 155.496214 63.229686 
" clip-path="url(#pa006fabf82)" style="fill: none; stroke: #000000; stroke-opacity: 0.25; stroke-width: 1.5; stroke-linecap: square"/>
   </g>
   <g id="line2d_29">
    <path d="M 56.433382 191.35739 
L 63.509298 189.220079 
L 70.585215 183.751506 
L 77.661132 175.71241 
L 84.737048 166.670333 
L 91.812965 158.547596 
L 98.888881 146.298823 
L 105.964798 136.923205 
L 113.040715 126.796091 
L 120.116631 114.798276 
L 127.192548 106.235781 
L 134.268465 92.675625 
L 141.344381 81.534285 
L 148.420298 71.490006 
L 155.496214 65.738004 
" clip-path="url(#pa006fabf82)" style="fill: none; stroke: #000000; stroke-opacity: 0.25; stroke-width: 1.5; stroke-linecap: square"/>
   </g>
   <g id="line2d_30">
    <path d="M 56.433382 189.647551 
L 63.509298 182.430527 
L 70.585215 184.102045 
L 77.661132 175.415703 
L 84.737048 166.455387 
L 91.812965 158.226471 
L 98.888881 145.183021 
L 105.964798 136.270296 
L 113.040715 126.356979 
L 120.116631 116.466897 
L 127.192548 106.864056 
L 134.268465 104.423872 
L 141.344381 84.120014 
L 148.420298 72.614649 
L 155.496214 68.86535 
" clip-path="url(#pa006fabf82)" style="fill: none; stroke: #000000; stroke-opacity: 0.25; stroke-width: 1.5; stroke-linecap: square"/>
   </g>
   <g id="line2d_31">
    <path d="M 56.433382 189.326654 
L 63.509298 189.061747 
L 70.585215 184.560444 
L 77.661132 175.001111 
L 84.737048 166.323881 
L 91.812965 155.425752 
L 98.888881 145.187544 
L 105.964798 135.653864 
L 113.040715 128.723284 
L 120.116631 118.090774 
L 127.192548 110.44475 
L 134.268465 98.440189 
L 141.344381 84.275056 
L 148.420298 74.031679 
L 155.496214 67.801056 
" clip-path="url(#pa006fabf82)" style="fill: none; stroke: #000000; stroke-opacity: 0.25; stroke-width: 1.5; stroke-linecap: square"/>
   </g>
   <g id="line2d_32">
    <path d="M 56.433382 192.642466 
L 63.509298 189.269259 
L 70.585215 183.379937 
L 77.661132 174.855263 
L 84.737048 165.803952 
L 91.812965 158.565561 
L 98.888881 147.479948 
L 105.964798 139.733506 
L 113.040715 128.730471 
L 120.116631 122.985782 
L 127.192548 110.834647 
L 134.268465 98.805315 
L 141.344381 87.145382 
L 148.420298 75.211898 
L 155.496214 67.907439 
" clip-path="url(#pa006fabf82)" style="fill: none; stroke: #000000; stroke-opacity: 0.25; stroke-width: 1.5; stroke-linecap: square"/>
   </g>
   <g id="line2d_33">
    <path d="M 56.433382 191.899381 
L 63.509298 189.699251 
L 70.585215 184.097764 
L 77.661132 176.031646 
L 84.737048 168.556922 
L 91.812965 161.654243 
L 98.888881 150.603636 
L 105.964798 143.859717 
L 113.040715 133.43167 
L 120.116631 127.144087 
L 127.192548 115.475031 
L 134.268465 105.699471 
L 141.344381 91.067848 
L 148.420298 78.988603 
L 155.496214 69.913567 
" clip-path="url(#pa006fabf82)" style="fill: none; stroke: #000000; stroke-opacity: 0.25; stroke-width: 1.5; stroke-linecap: square"/>
   </g>
   <g id="line2d_34">
    <path d="M 56.433382 190.748808 
L 63.509298 189.744961 
L 70.585215 183.647283 
L 77.661132 176.363306 
L 84.737048 169.613514 
L 91.812965 163.317885 
L 98.888881 155.806547 
L 105.964798 145.580665 
L 113.040715 139.182257 
L 120.116631 131.823769 
L 127.192548 124.579869 
L 134.268465 114.9133 
L 141.344381 103.875911 
L 148.420298 88.203021 
L 155.496214 82.992601 
" clip-path="url(#pa006fabf82)" style="fill: none; stroke: #000000; stroke-opacity: 0.25; stroke-width: 1.5; stroke-linecap: square"/>
   </g>
   <g id="line2d_35">
    <path d="M 56.433382 190.063283 
L 63.509298 188.909495 
L 70.585215 183.879971 
L 77.661132 176.550566 
L 84.737048 170.610445 
L 91.812965 165.366553 
L 98.888881 160.769099 
L 105.964798 153.203377 
L 113.040715 147.487495 
L 120.116631 140.917535 
L 127.192548 132.795005 
L 134.268465 125.681738 
L 141.344381 118.426858 
L 148.420298 105.069232 
L 155.496214 91.01398 
" clip-path="url(#pa006fabf82)" style="fill: none; stroke: #000000; stroke-opacity: 0.25; stroke-width: 1.5; stroke-linecap: square"/>
   </g>
   <g id="line2d_36">
    <path d="M 56.433382 189.319563 
L 63.509298 189.047349 
L 70.585215 182.154529 
L 77.661132 175.236801 
L 84.737048 165.593797 
L 91.812965 156.693202 
L 98.888881 145.031457 
L 105.964798 136.897059 
L 113.040715 126.713018 
L 120.116631 116.857732 
L 127.192548 106.215756 
L 134.268465 95.41915 
L 141.344381 84.107442 
L 148.420298 70.364301 
L 155.496214 65.737953 
" clip-path="url(#pa006fabf82)" style="fill: none; stroke: #000000; stroke-opacity: 0.25; stroke-width: 1.5; stroke-linecap: square"/>
   </g>
   <g id="line2d_37">
    <path d="M 56.433382 189.206045 
L 63.509298 189.280769 
L 70.585215 182.248616 
L 77.661132 173.45582 
L 84.737048 165.059975 
L 91.812965 156.201596 
L 98.888881 145.78741 
L 105.964798 134.273421 
L 113.040715 125.986688 
L 120.116631 115.6458 
L 127.192548 104.038762 
L 134.268465 93.656833 
L 141.344381 82.014672 
L 148.420298 71.518158 
L 155.496214 63.879158 
" clip-path="url(#pa006fabf82)" style="fill: none; stroke: #000000; stroke-opacity: 0.25; stroke-width: 1.5; stroke-linecap: square"/>
   </g>
   <g id="line2d_38">
    <path d="M 56.433382 189.319978 
L 63.509298 188.696004 
L 70.585215 180.727823 
L 77.661132 174.510315 
L 84.737048 165.422642 
L 91.812965 156.344594 
L 98.888881 144.212183 
L 105.964798 134.453783 
L 113.040715 124.296358 
L 120.116631 113.627886 
L 127.192548 104.537278 
L 134.268465 93.267782 
L 141.344381 80.696427 
L 148.420298 72.504076 
L 155.496214 63.294124 
" clip-path="url(#pa006fabf82)" style="fill: none; stroke: #000000; stroke-opacity: 0.25; stroke-width: 1.5; stroke-linecap: square"/>
   </g>
   <g id="line2d_39">
    <path d="M 56.433382 189.326137 
L 63.509298 188.33907 
L 70.585215 182.433483 
L 77.661132 172.180349 
L 84.737048 163.609243 
L 91.812965 152.885811 
L 98.888881 142.823364 
L 105.964798 133.445971 
L 113.040715 123.975704 
L 120.116631 114.546695 
L 127.192548 104.764451 
L 134.268465 98.667006 
L 141.344381 79.932297 
L 148.420298 71.987727 
L 155.496214 62.914428 
" clip-path="url(#pa006fabf82)" style="fill: none; stroke: #000000; stroke-opacity: 0.25; stroke-width: 1.5; stroke-linecap: square"/>
   </g>
   <g id="line2d_40">
    <path d="M 56.433382 190.289285 
L 63.509298 187.857 
L 70.585215 181.161942 
L 77.661132 171.375924 
L 84.737048 162.60074 
L 91.812965 154.087831 
L 98.888881 143.291311 
L 105.964798 132.785203 
L 113.040715 125.655609 
L 120.116631 115.570569 
L 127.192548 107.130264 
L 134.268465 95.857456 
L 141.344381 83.651634 
L 148.420298 73.888032 
L 155.496214 66.643328 
" clip-path="url(#pa006fabf82)" style="fill: none; stroke: #000000; stroke-opacity: 0.25; stroke-width: 1.5; stroke-linecap: square"/>
   </g>
   <g id="line2d_41">
    <path d="M 56.433382 189.95182 
L 63.509298 188.402236 
L 70.585215 181.845463 
L 77.661132 172.831423 
L 84.737048 163.660767 
L 91.812965 156.834004 
L 98.888881 145.704171 
L 105.964798 137.717792 
L 113.040715 127.103175 
L 120.116631 120.944579 
L 127.192548 108.996803 
L 134.268465 99.514602 
L 141.344381 85.361316 
L 148.420298 74.78828 
L 155.496214 66.822139 
" clip-path="url(#pa006fabf82)" style="fill: none; stroke: #000000; stroke-opacity: 0.25; stroke-width: 1.5; stroke-linecap: square"/>
   </g>
   <g id="line2d_42">
    <path d="M 56.433382 189.308437 
L 63.509298 188.038497 
L 70.585215 181.040244 
L 77.661132 173.879572 
L 84.737048 167.269026 
L 91.812965 157.725346 
L 98.888881 148.50184 
L 105.964798 141.038902 
L 113.040715 134.01607 
L 120.116631 124.405013 
L 127.192548 117.58446 
L 134.268465 106.653755 
L 141.344381 93.088134 
L 148.420298 79.446032 
L 155.496214 71.16794 
" clip-path="url(#pa006fabf82)" style="fill: none; stroke: #000000; stroke-opacity: 0.25; stroke-width: 1.5; stroke-linecap: square"/>
   </g>
   <g id="line2d_43">
    <path d="M 56.433382 189.344744 
L 63.509298 188.166085 
L 70.585215 181.374686 
L 77.661132 173.799925 
L 84.737048 167.727795 
L 91.812965 160.906675 
L 98.888881 154.034748 
L 105.964798 144.354898 
L 113.040715 136.837287 
L 120.116631 129.707567 
L 127.192548 124.999286 
L 134.268465 117.547472 
L 141.344381 106.580298 
L 148.420298 90.710048 
L 155.496214 79.093727 
" clip-path="url(#pa006fabf82)" style="fill: none; stroke: #000000; stroke-opacity: 0.25; stroke-width: 1.5; stroke-linecap: square"/>
   </g>
   <g id="line2d_44">
    <path d="M 56.433382 189.32883 
L 63.509298 187.140145 
L 70.585215 180.957653 
L 77.661132 175.655851 
L 84.737048 169.405568 
L 91.812965 165.199703 
L 98.888881 158.94122 
L 105.964798 153.092657 
L 113.040715 146.513144 
L 120.116631 139.905521 
L 127.192548 131.084677 
L 134.268465 125.300028 
L 141.344381 127.551829 
L 148.420298 114.018876 
L 155.496214 116.086128 
" clip-path="url(#pa006fabf82)" style="fill: none; stroke: #000000; stroke-opacity: 0.25; stroke-width: 1.5; stroke-linecap: square"/>
   </g>
   <g id="line2d_45">
    <path d="M 56.433382 189.594308 
L 63.509298 188.737739 
L 70.585215 185.42506 
L 77.661132 180.546325 
L 84.737048 179.420618 
L 91.812965 177.254479 
L 98.888881 171.909049 
L 105.964798 166.341815 
L 113.040715 157.282141 
L 120.116631 147.445468 
L 127.192548 138.90323 
L 134.268465 123.709432 
L 141.344381 107.29144 
L 148.420298 92.112439 
L 155.496214 77.68993 
" clip-path="url(#pa006fabf82)" style="fill: none; stroke: #000000; stroke-opacity: 0.25; stroke-width: 1.5; stroke-linecap: square"/>
   </g>
   <g id="line2d_46">
    <path d="M 56.433382 189.553104 
L 63.509298 188.482244 
L 70.585215 184.151874 
L 77.661132 179.914716 
L 84.737048 175.447621 
L 91.812965 168.249557 
L 98.888881 162.536626 
L 105.964798 151.507404 
L 113.040715 141.414256 
L 120.116631 132.223347 
L 127.192548 121.410619 
L 134.268465 110.53463 
L 141.344381 97.227835 
L 148.420298 82.657557 
L 155.496214 72.289565 
" clip-path="url(#pa006fabf82)" style="fill: none; stroke: #000000; stroke-opacity: 0.25; stroke-width: 1.5; stroke-linecap: square"/>
   </g>
   <g id="line2d_47">
    <path d="M 56.433382 189.673976 
L 63.509298 188.4855 
L 70.585215 184.486121 
L 77.661132 177.406129 
L 84.737048 171.139846 
L 91.812965 160.364883 
L 98.888881 152.328811 
L 105.964798 142.302193 
L 113.040715 130.783318 
L 120.116631 120.061196 
L 127.192548 109.928083 
L 134.268465 97.453493 
L 141.344381 87.979702 
L 148.420298 76.450441 
L 155.496214 67.024009 
" clip-path="url(#pa006fabf82)" style="fill: none; stroke: #000000; stroke-opacity: 0.25; stroke-width: 1.5; stroke-linecap: square"/>
   </g>
   <g id="line2d_48">
    <path d="M 56.433382 190.242674 
L 63.509298 189.191969 
L 70.585215 182.281454 
L 77.661132 173.0075 
L 84.737048 164.227357 
L 91.812965 152.615563 
L 98.888881 142.088248 
L 105.964798 134.279986 
L 113.040715 122.318713 
L 120.116631 112.596446 
L 127.192548 103.240123 
L 134.268465 90.894741 
L 141.344381 80.453297 
L 148.420298 71.623042 
L 155.496214 62.646935 
" clip-path="url(#pa006fabf82)" style="fill: none; stroke: #000000; stroke-opacity: 0.25; stroke-width: 1.5; stroke-linecap: square"/>
   </g>
   <g id="line2d_49">
    <path d="M 56.433382 189.833928 
L 63.509298 188.245463 
L 70.585215 181.763297 
L 77.661132 170.519368 
L 84.737048 159.793191 
L 91.812965 148.978954 
L 98.888881 137.66684 
L 105.964798 128.313135 
L 113.040715 118.907344 
L 120.116631 107.179295 
L 127.192548 97.515491 
L 134.268465 85.813022 
L 141.344381 73.506248 
L 148.420298 63.684999 
L 155.496214 58.359844 
" clip-path="url(#pa006fabf82)" style="fill: none; stroke: #000000; stroke-opacity: 0.25; stroke-width: 1.5; stroke-linecap: square"/>
   </g>
   <g id="line2d_50">
    <path d="M 56.433382 189.901661 
L 63.509298 188.816936 
L 70.585215 180.796992 
L 77.661132 170.113862 
L 84.737048 158.439031 
L 91.812965 149.356978 
L 98.888881 135.111398 
L 105.964798 125.140768 
L 113.040715 114.668614 
L 120.116631 103.550972 
L 127.192548 92.79247 
L 134.268465 84.008808 
L 141.344381 70.293896 
L 148.420298 61.201606 
L 155.496214 52.500221 
" clip-path="url(#pa006fabf82)" style="fill: none; stroke: #000000; stroke-opacity: 0.25; stroke-width: 1.5; stroke-linecap: square"/>
   </g>
   <g id="line2d_51">
    <path d="M 56.433382 189.827727 
L 63.509298 188.464459 
L 70.585215 181.040383 
L 77.661132 169.940083 
L 84.737048 159.17827 
L 91.812965 148.686107 
L 98.888881 137.092937 
L 105.964798 125.808942 
L 113.040715 112.677094 
L 120.116631 101.4358 
L 127.192548 90.946893 
L 134.268465 79.974767 
L 141.344381 68.51803 
L 148.420298 59.765725 
L 155.496214 51.411743 
" clip-path="url(#pa006fabf82)" style="fill: none; stroke: #000000; stroke-opacity: 0.25; stroke-width: 1.5; stroke-linecap: square"/>
   </g>
   <g id="line2d_52">
    <path d="M 56.433382 189.822588 
L 63.509298 188.380453 
L 70.585215 181.331363 
L 77.661132 170.675173 
L 84.737048 159.875583 
L 91.812965 150.566374 
L 98.888881 136.318853 
L 105.964798 124.99048 
L 113.040715 113.631224 
L 120.116631 101.775942 
L 127.192548 90.465427 
L 134.268465 78.460588 
L 141.344381 66.60026 
L 148.420298 57.013556 
L 155.496214 48.879685 
" clip-path="url(#pa006fabf82)" style="fill: none; stroke: #000000; stroke-opacity: 0.25; stroke-width: 1.5; stroke-linecap: square"/>
   </g>
   <g id="line2d_53">
    <path d="M 56.433382 189.314631 
L 63.509298 188.727673 
L 70.585215 180.691267 
L 77.661132 169.641644 
L 84.737048 160.778131 
L 91.812965 150.142037 
L 98.888881 139.813297 
L 105.964798 126.837637 
L 113.040715 113.702758 
L 120.116631 102.818008 
L 127.192548 90.180043 
L 134.268465 78.915537 
L 141.344381 67.453025 
L 148.420298 56.669704 
L 155.496214 49.088183 
" clip-path="url(#pa006fabf82)" style="fill: none; stroke: #000000; stroke-opacity: 0.25; stroke-width: 1.5; stroke-linecap: square"/>
   </g>
   <g id="line2d_54">
    <path d="M 56.433382 189.86158 
L 63.509298 187.823186 
L 70.585215 182.673189 
L 77.661132 174.574084 
L 84.737048 163.362176 
L 91.812965 155.252561 
L 98.888881 144.625544 
L 105.964798 137.360763 
L 113.040715 122.084708 
L 120.116631 122.997576 
L 127.192548 106.532037 
L 134.268465 98.741808 
L 141.344381 80.146402 
L 148.420298 64.719672 
L 155.496214 57.162128 
" clip-path="url(#pa006fabf82)" style="fill: none; stroke: #000000; stroke-opacity: 0.25; stroke-width: 1.5; stroke-linecap: square"/>
   </g>
   <g id="line2d_55">
    <path d="M 56.433382 189.312399 
L 63.509298 176.82427 
L 70.585215 178.405237 
L 77.661132 169.837457 
L 84.737048 159.498818 
L 91.812965 152.280021 
L 98.888881 142.799211 
L 105.964798 133.308715 
L 113.040715 119.93366 
L 120.116631 112.257423 
L 127.192548 108.644546 
L 134.268465 97.602432 
L 141.344381 79.971889 
L 148.420298 60.14549 
L 155.496214 48.595756 
" clip-path="url(#pa006fabf82)" style="fill: none; stroke: #000000; stroke-opacity: 0.25; stroke-width: 1.5; stroke-linecap: square"/>
   </g>
   <g id="line2d_56">
    <path d="M 56.433382 190.002169 
L 63.509298 186.697265 
L 70.585215 179.804821 
L 77.661132 174.553355 
L 84.737048 161.725911 
L 91.812965 151.859212 
L 98.888881 148.299216 
L 105.964798 136.053085 
L 113.040715 121.29718 
L 120.116631 116.234682 
L 127.192548 100.4073 
L 134.268465 85.459273 
L 141.344381 74.425064 
L 148.420298 57.189713 
L 155.496214 41.171951 
" clip-path="url(#pa006fabf82)" style="fill: none; stroke: #000000; stroke-opacity: 0.25; stroke-width: 1.5; stroke-linecap: square"/>
   </g>
   <g id="line2d_57">
    <path d="M 56.433382 190.062809 
L 63.509298 184.829091 
L 70.585215 174.997364 
L 77.661132 166.132974 
L 84.737048 157.688943 
L 91.812965 147.14012 
L 98.888881 141.187217 
L 105.964798 131.758539 
L 113.040715 113.825286 
L 120.116631 103.840876 
L 127.192548 90.089975 
L 134.268465 80.712669 
L 141.344381 61.781648 
L 148.420298 49.258308 
L 155.496214 36.355808 
" clip-path="url(#pa006fabf82)" style="fill: none; stroke: #000000; stroke-opacity: 0.25; stroke-width: 1.5; stroke-linecap: square"/>
   </g>
   <g id="line2d_58">
    <path d="M 56.433382 190.188707 
L 63.509298 186.084134 
L 70.585215 176.234003 
L 77.661132 161.84784 
L 84.737048 151.45222 
L 91.812965 140.214986 
L 98.888881 128.687043 
L 105.964798 120.434651 
L 113.040715 104.674256 
L 120.116631 94.704309 
L 127.192548 83.615677 
L 134.268465 70.807088 
L 141.344381 77.977931 
L 148.420298 58.65573 
L 155.496214 31.08264 
" clip-path="url(#pa006fabf82)" style="fill: none; stroke: #000000; stroke-opacity: 0.25; stroke-width: 1.5; stroke-linecap: square"/>
   </g>
   <g id="line2d_59">
    <path d="M 56.433382 189.265487 
L 63.509298 180.41902 
L 70.585215 170.64013 
L 77.661132 159.431411 
L 84.737048 147.231338 
L 91.812965 135.444835 
L 98.888881 125.441894 
L 105.964798 113.830754 
L 113.040715 100.734347 
L 120.116631 91.933486 
L 127.192548 76.041931 
L 134.268465 71.287714 
L 141.344381 60.300964 
L 148.420298 44.146854 
L 155.496214 29.211726 
" clip-path="url(#pa006fabf82)" style="fill: none; stroke: #000000; stroke-opacity: 0.25; stroke-width: 1.5; stroke-linecap: square"/>
   </g>
   <g id="line2d_60">
    <path d="M 56.433382 191.098367 
L 63.509298 182.10511 
L 70.585215 166.555915 
L 77.661132 155.662037 
L 84.737048 141.664515 
L 91.812965 130.970891 
L 98.888881 118.685477 
L 105.964798 106.165345 
L 113.040715 94.404056 
L 120.116631 79.351605 
L 127.192548 72.919552 
L 134.268465 58.113776 
L 141.344381 47.513278 
L 148.420298 32.612884 
L 155.496214 22.801733 
" clip-path="url(#pa006fabf82)" style="fill: none; stroke: #000000; stroke-opacity: 0.25; stroke-width: 1.5; stroke-linecap: square"/>
   </g>
   <g id="line2d_61">
    <path d="M 56.433382 189.507306 
L 63.509298 176.259369 
L 70.585215 170.79838 
L 77.661132 153.594936 
L 84.737048 140.123639 
L 91.812965 129.10996 
L 98.888881 119.201203 
L 105.964798 104.834888 
L 113.040715 92.510931 
L 120.116631 75.76859 
L 127.192548 63.892011 
L 134.268465 51.739827 
L 141.344381 41.880755 
L 148.420298 27.101349 
L 155.496214 22.599553 
" clip-path="url(#pa006fabf82)" style="fill: none; stroke: #000000; stroke-opacity: 0.25; stroke-width: 1.5; stroke-linecap: square"/>
   </g>
   <g id="line2d_62">
    <path d="M 56.433382 189.319959 
L 63.509298 173.182939 
L 70.585215 168.402601 
L 77.661132 151.877022 
L 84.737048 142.844933 
L 91.812965 125.057684 
L 98.888881 117.184474 
L 105.964798 100.815283 
L 113.040715 91.207029 
L 120.116631 74.696638 
L 127.192548 62.702828 
L 134.268465 49.715666 
L 141.344381 35.752759 
L 148.420298 25.31293 
L 155.496214 14.10299 
" clip-path="url(#pa006fabf82)" style="fill: none; stroke: #000000; stroke-opacity: 0.25; stroke-width: 1.5; stroke-linecap: square"/>
   </g>
   <g id="line2d_63">
    <path d="M 56.433382 189.402979 
L 63.509298 188.564899 
L 70.585215 185.462443 
L 77.661132 181.548428 
L 84.737048 177.568913 
L 91.812965 169.474942 
L 98.888881 163.594801 
L 105.964798 157.359597 
L 113.040715 149.714744 
L 120.116631 141.892507 
L 127.192548 134.572209 
L 134.268465 132.121991 
L 141.344381 130.190767 
L 148.420298 130.059749 
L 155.496214 116.300482 
" clip-path="url(#pa006fabf82)" style="fill: none; stroke: #000000; stroke-opacity: 0.25; stroke-width: 1.5; stroke-linecap: square"/>
   </g>
   <g id="line2d_64">
    <path d="M 56.433382 189.684999 
L 63.509298 188.621722 
L 70.585215 185.078466 
L 77.661132 181.216872 
L 84.737048 175.913364 
L 91.812965 169.451533 
L 98.888881 161.006317 
L 105.964798 175.165201 
L 113.040715 152.045324 
L 120.116631 139.434049 
L 127.192548 131.837798 
L 134.268465 127.607642 
L 141.344381 115.062202 
L 148.420298 99.418076 
L 155.496214 102.203802 
" clip-path="url(#pa006fabf82)" style="fill: none; stroke: #000000; stroke-opacity: 0.25; stroke-width: 1.5; stroke-linecap: square"/>
   </g>
   <g id="line2d_65">
    <path d="M 56.433382 189.51455 
L 63.509298 188.300453 
L 70.585215 183.792084 
L 77.661132 179.528179 
L 84.737048 174.592947 
L 91.812965 165.342097 
L 98.888881 158.900965 
L 105.964798 149.42854 
L 113.040715 138.146059 
L 120.116631 131.495452 
L 127.192548 122.892501 
L 134.268465 116.277286 
L 141.344381 101.714473 
L 148.420298 85.061272 
L 155.496214 88.449769 
" clip-path="url(#pa006fabf82)" style="fill: none; stroke: #000000; stroke-opacity: 0.25; stroke-width: 1.5; stroke-linecap: square"/>
   </g>
   <g id="line2d_66">
    <path d="M 56.433382 189.831112 
L 63.509298 188.433444 
L 70.585215 184.337076 
L 77.661132 177.298441 
L 84.737048 171.354934 
L 91.812965 164.711596 
L 98.888881 154.860419 
L 105.964798 147.019148 
L 113.040715 136.411607 
L 120.116631 127.130678 
L 127.192548 115.366596 
L 134.268465 104.826626 
L 141.344381 92.368702 
L 148.420298 79.980985 
L 155.496214 79.847317 
" clip-path="url(#pa006fabf82)" style="fill: none; stroke: #000000; stroke-opacity: 0.25; stroke-width: 1.5; stroke-linecap: square"/>
   </g>
   <g id="line2d_67">
    <path d="M 56.433382 189.632487 
L 63.509298 188.023032 
L 70.585215 181.907675 
L 77.661132 175.262926 
L 84.737048 164.908033 
L 91.812965 156.494099 
L 98.888881 147.808057 
L 105.964798 138.481774 
L 113.040715 129.250151 
L 120.116631 117.765644 
L 127.192548 110.35305 
L 134.268465 98.114481 
L 141.344381 86.098893 
L 148.420298 72.662133 
L 155.496214 74.095522 
" clip-path="url(#pa006fabf82)" style="fill: none; stroke: #000000; stroke-opacity: 0.25; stroke-width: 1.5; stroke-linecap: square"/>
   </g>
   <g id="line2d_68">
    <path d="M 56.433382 189.461331 
L 63.509298 189.016481 
L 70.585215 180.904244 
L 77.661132 173.08738 
L 84.737048 163.759838 
L 91.812965 152.462195 
L 98.888881 142.7919 
L 105.964798 134.60019 
L 113.040715 124.206192 
L 120.116631 116.309315 
L 127.192548 105.91327 
L 134.268465 95.280694 
L 141.344381 82.242323 
L 148.420298 71.579237 
L 155.496214 68.349272 
" clip-path="url(#pa006fabf82)" style="fill: none; stroke: #000000; stroke-opacity: 0.25; stroke-width: 1.5; stroke-linecap: square"/>
   </g>
   <g id="line2d_69">
    <path d="M 56.433382 189.342704 
L 63.509298 188.655184 
L 70.585215 181.741679 
L 77.661132 170.998927 
L 84.737048 163.17448 
L 91.812965 151.300971 
L 98.888881 141.075327 
L 105.964798 132.755518 
L 113.040715 123.25775 
L 120.116631 113.67331 
L 127.192548 102.979489 
L 134.268465 91.066475 
L 141.344381 79.043714 
L 148.420298 65.047591 
L 155.496214 67.353498 
" clip-path="url(#pa006fabf82)" style="fill: none; stroke: #000000; stroke-opacity: 0.25; stroke-width: 1.5; stroke-linecap: square"/>
   </g>
   <g id="line2d_70">
    <path d="M 56.433382 190.247839 
L 63.509298 188.517574 
L 70.585215 180.612856 
L 77.661132 170.156362 
L 84.737048 160.723357 
L 91.812965 152.536975 
L 98.888881 142.285197 
L 105.964798 131.15206 
L 113.040715 122.260971 
L 120.116631 112.004246 
L 127.192548 99.212328 
L 134.268465 88.893181 
L 141.344381 86.78845 
L 148.420298 71.786688 
L 155.496214 64.012009 
" clip-path="url(#pa006fabf82)" style="fill: none; stroke: #000000; stroke-opacity: 0.25; stroke-width: 1.5; stroke-linecap: square"/>
   </g>
   <g id="line2d_71">
    <path d="M 56.433382 189.805079 
L 63.509298 188.593954 
L 70.585215 178.739838 
L 77.661132 171.48803 
L 84.737048 160.942924 
L 91.812965 151.787305 
L 98.888881 141.527591 
L 105.964798 132.070566 
L 113.040715 121.533326 
L 120.116631 112.359138 
L 127.192548 98.310123 
L 134.268465 89.141753 
L 141.344381 73.434029 
L 148.420298 62.4903 
L 155.496214 67.925834 
" clip-path="url(#pa006fabf82)" style="fill: none; stroke: #000000; stroke-opacity: 0.25; stroke-width: 1.5; stroke-linecap: square"/>
   </g>
   <g id="line2d_72">
    <path d="M 56.433382 189.727556 
L 63.509298 187.578517 
L 70.585215 179.27149 
L 77.661132 169.241566 
L 84.737048 160.735922 
L 91.812965 164.084104 
L 98.888881 151.59957 
L 105.964798 130.818252 
L 113.040715 124.218495 
L 120.116631 114.76181 
L 127.192548 102.012918 
L 134.268465 94.921364 
L 141.344381 85.198514 
L 148.420298 68.466284 
L 155.496214 75.742875 
" clip-path="url(#pa006fabf82)" style="fill: none; stroke: #000000; stroke-opacity: 0.25; stroke-width: 1.5; stroke-linecap: square"/>
   </g>
   <g id="line2d_73">
    <path d="M 56.433382 189.42815 
L 63.509298 187.853265 
L 70.585215 176.66822 
L 77.661132 169.058292 
L 84.737048 159.308211 
L 91.812965 151.261148 
L 98.888881 141.74852 
L 105.964798 140.605623 
L 113.040715 127.140209 
L 120.116631 108.036776 
L 127.192548 96.559018 
L 134.268465 94.708804 
L 141.344381 75.655337 
L 148.420298 60.541856 
L 155.496214 61.972792 
" clip-path="url(#pa006fabf82)" style="fill: none; stroke: #000000; stroke-opacity: 0.25; stroke-width: 1.5; stroke-linecap: square"/>
   </g>
   <g id="line2d_74">
    <path d="M 56.433382 190.491106 
L 63.509298 184.966003 
L 70.585215 175.782127 
L 77.661132 161.75399 
L 84.737048 150.527505 
L 91.812965 151.537787 
L 98.888881 139.553712 
L 105.964798 126.488956 
L 113.040715 118.897942 
L 120.116631 114.245509 
L 127.192548 91.533855 
L 134.268465 84.673138 
L 141.344381 65.58244 
L 148.420298 73.646362 
L 155.496214 63.289774 
" clip-path="url(#pa006fabf82)" style="fill: none; stroke: #000000; stroke-opacity: 0.25; stroke-width: 1.5; stroke-linecap: square"/>
   </g>
   <g id="line2d_75">
    <path d="M 56.433382 189.409774 
L 63.509298 187.036344 
L 70.585215 171.015557 
L 77.661132 158.101052 
L 84.737048 151.247118 
L 91.812965 141.168272 
L 98.888881 129.267253 
L 105.964798 117.979032 
L 113.040715 105.393419 
L 120.116631 99.999416 
L 127.192548 86.048524 
L 134.268465 74.144238 
L 141.344381 57.945387 
L 148.420298 48.133792 
L 155.496214 54.884923 
" clip-path="url(#pa006fabf82)" style="fill: none; stroke: #000000; stroke-opacity: 0.25; stroke-width: 1.5; stroke-linecap: square"/>
   </g>
   <g id="line2d_76">
    <path d="M 56.433382 189.311844 
L 63.509298 185.300723 
L 70.585215 166.176827 
L 77.661132 156.650386 
L 84.737048 144.671682 
L 91.812965 132.928133 
L 98.888881 124.908 
L 105.964798 111.24188 
L 113.040715 103.831719 
L 120.116631 95.722435 
L 127.192548 81.972263 
L 134.268465 71.437628 
L 141.344381 58.160626 
L 148.420298 48.324463 
L 155.496214 45.928282 
" clip-path="url(#pa006fabf82)" style="fill: none; stroke: #000000; stroke-opacity: 0.25; stroke-width: 1.5; stroke-linecap: square"/>
   </g>
   <g id="line2d_77">
    <path d="M 56.433382 189.260922 
L 63.509298 187.011063 
L 70.585215 156.836718 
L 77.661132 154.680251 
L 84.737048 140.997066 
L 91.812965 131.160726 
L 98.888881 117.810856 
L 105.964798 106.775516 
L 113.040715 97.748048 
L 120.116631 89.808016 
L 127.192548 84.530498 
L 134.268465 66.354252 
L 141.344381 55.268024 
L 148.420298 40.662606 
L 155.496214 59.010249 
" clip-path="url(#pa006fabf82)" style="fill: none; stroke: #000000; stroke-opacity: 0.25; stroke-width: 1.5; stroke-linecap: square"/>
   </g>
   <g id="line2d_78">
    <path d="M 56.433382 189.862845 
L 63.509298 184.190134 
L 70.585215 158.340632 
L 77.661132 146.297556 
L 84.737048 133.753961 
L 91.812965 125.489907 
L 98.888881 115.815057 
L 105.964798 107.834857 
L 113.040715 89.926128 
L 120.116631 84.318017 
L 127.192548 80.76237 
L 134.268465 63.862793 
L 141.344381 47.785056 
L 148.420298 40.345059 
L 155.496214 44.412792 
" clip-path="url(#pa006fabf82)" style="fill: none; stroke: #000000; stroke-opacity: 0.25; stroke-width: 1.5; stroke-linecap: square"/>
   </g>
   <g id="line2d_79">
    <path d="M 56.433382 189.377264 
L 63.509298 181.01983 
L 70.585215 149.373164 
L 77.661132 143.531652 
L 84.737048 129.003617 
L 91.812965 117.211191 
L 98.888881 113.113721 
L 105.964798 97.404402 
L 113.040715 89.575853 
L 120.116631 76.944581 
L 127.192548 65.862275 
L 134.268465 59.678872 
L 141.344381 49.377407 
L 148.420298 58.901457 
L 155.496214 54.248806 
" clip-path="url(#pa006fabf82)" style="fill: none; stroke: #000000; stroke-opacity: 0.25; stroke-width: 1.5; stroke-linecap: square"/>
   </g>
   <g id="line2d_80">
    <path d="M 56.433382 189.406679 
L 63.509298 178.131161 
L 70.585215 148.643213 
L 77.661132 146.809357 
L 84.737048 126.325042 
L 91.812965 116.432135 
L 98.888881 107.725336 
L 105.964798 96.848422 
L 113.040715 84.730925 
L 120.116631 70.025716 
L 127.192548 66.102363 
L 134.268465 52.281044 
L 141.344381 39.776312 
L 148.420298 41.753946 
L 155.496214 48.385572 
" clip-path="url(#pa006fabf82)" style="fill: none; stroke: #000000; stroke-opacity: 0.25; stroke-width: 1.5; stroke-linecap: square"/>
   </g>
   <g id="line2d_81">
    <path d="M 56.433382 189.493477 
L 63.509298 188.624803 
L 70.585215 175.783508 
L 77.661132 173.84484 
L 84.737048 159.243877 
L 91.812965 149.515719 
L 98.888881 137.20988 
L 105.964798 125.69938 
L 113.040715 117.41374 
L 120.116631 109.162025 
L 127.192548 109.80537 
L 134.268465 86.89663 
L 141.344381 70.6241 
L 148.420298 50.775737 
L 155.496214 52.183956 
" clip-path="url(#pa006fabf82)" style="fill: none; stroke: #000000; stroke-opacity: 0.25; stroke-width: 1.5; stroke-linecap: square"/>
   </g>
   <g id="line2d_82">
    <path d="M 56.433382 189.279939 
L 63.509298 183.050798 
L 70.585215 182.718464 
L 77.661132 171.508226 
L 84.737048 158.290536 
L 91.812965 147.464963 
L 98.888881 137.425623 
L 105.964798 138.940064 
L 113.040715 131.893645 
L 120.116631 105.074522 
L 127.192548 88.469042 
L 134.268465 80.203425 
L 141.344381 60.875783 
L 148.420298 49.153547 
L 155.496214 50.930101 
" clip-path="url(#pa006fabf82)" style="fill: none; stroke: #000000; stroke-opacity: 0.25; stroke-width: 1.5; stroke-linecap: square"/>
   </g>
   <g id="line2d_83">
    <path d="M 56.433382 189.267036 
L 63.509298 187.643335 
L 70.585215 180.452577 
L 77.661132 169.828553 
L 84.737048 157.330018 
L 91.812965 146.054584 
L 98.888881 140.571184 
L 105.964798 131.697768 
L 113.040715 106.871495 
L 120.116631 98.051 
L 127.192548 84.357161 
L 134.268465 74.126131 
L 141.344381 56.64766 
L 148.420298 50.307984 
L 155.496214 50.324352 
" clip-path="url(#pa006fabf82)" style="fill: none; stroke: #000000; stroke-opacity: 0.25; stroke-width: 1.5; stroke-linecap: square"/>
   </g>
   <g id="line2d_84">
    <path d="M 56.433382 190.963917 
L 63.509298 184.996603 
L 70.585215 181.675663 
L 77.661132 167.465343 
L 84.737048 153.229985 
L 91.812965 145.116535 
L 98.888881 130.405267 
L 105.964798 121.686253 
L 113.040715 112.964622 
L 120.116631 95.315112 
L 127.192548 79.853423 
L 134.268465 63.533883 
L 141.344381 52.488516 
L 148.420298 39.534863 
L 155.496214 44.300834 
" clip-path="url(#pa006fabf82)" style="fill: none; stroke: #000000; stroke-opacity: 0.25; stroke-width: 1.5; stroke-linecap: square"/>
   </g>
   <g id="line2d_85">
    <path d="M 56.433382 189.827507 
L 63.509298 175.194508 
L 70.585215 174.604271 
L 77.661132 159.783849 
L 84.737048 148.320703 
L 91.812965 141.128049 
L 98.888881 131.131995 
L 105.964798 123.378903 
L 113.040715 101.340619 
L 120.116631 96.529943 
L 127.192548 70.481568 
L 134.268465 80.29756 
L 141.344381 59.078575 
L 148.420298 47.007671 
L 155.496214 47.07201 
" clip-path="url(#pa006fabf82)" style="fill: none; stroke: #000000; stroke-opacity: 0.25; stroke-width: 1.5; stroke-linecap: square"/>
   </g>
   <g id="line2d_86">
    <path d="M 56.433382 189.52127 
L 63.509298 179.287682 
L 70.585215 173.411847 
L 77.661132 159.429982 
L 84.737048 144.642419 
L 91.812965 140.618397 
L 98.888881 130.533151 
L 105.964798 116.946111 
L 113.040715 107.773551 
L 120.116631 93.189884 
L 127.192548 73.451395 
L 134.268465 59.919031 
L 141.344381 56.500532 
L 148.420298 39.995681 
L 155.496214 41.28396 
" clip-path="url(#pa006fabf82)" style="fill: none; stroke: #000000; stroke-opacity: 0.25; stroke-width: 1.5; stroke-linecap: square"/>
   </g>
   <g id="line2d_87">
    <path d="M 56.433382 189.324337 
L 63.509298 184.309695 
L 70.585215 174.50848 
L 77.661132 157.437422 
L 84.737048 146.433468 
L 91.812965 136.257162 
L 98.888881 120.621093 
L 105.964798 109.74961 
L 113.040715 101.569873 
L 120.116631 86.582116 
L 127.192548 71.731188 
L 134.268465 59.999125 
L 141.344381 51.016792 
L 148.420298 36.784151 
L 155.496214 43.13411 
" clip-path="url(#pa006fabf82)" style="fill: none; stroke: #000000; stroke-opacity: 0.25; stroke-width: 1.5; stroke-linecap: square"/>
   </g>
   <g id="line2d_88">
    <path d="M 56.433382 189.601294 
L 63.509298 185.665969 
L 70.585215 169.578063 
L 77.661132 156.415371 
L 84.737048 143.741276 
L 91.812965 136.399399 
L 98.888881 118.320266 
L 105.964798 112.403677 
L 113.040715 108.973654 
L 120.116631 93.118874 
L 127.192548 73.553892 
L 134.268465 58.181291 
L 141.344381 55.691623 
L 148.420298 29.18758 
L 155.496214 30.382427 
" clip-path="url(#pa006fabf82)" style="fill: none; stroke: #000000; stroke-opacity: 0.25; stroke-width: 1.5; stroke-linecap: square"/>
   </g>
   <g id="line2d_89">
    <path d="M 56.433382 189.269793 
L 63.509298 186.537221 
L 70.585215 170.373237 
L 77.661132 161.65688 
L 84.737048 152.564115 
L 91.812965 139.970386 
L 98.888881 123.332038 
L 105.964798 106.955818 
L 113.040715 110.541998 
L 120.116631 84.464266 
L 127.192548 67.569943 
L 134.268465 68.178533 
L 141.344381 65.861683 
L 148.420298 42.447934 
L 155.496214 40.690432 
" clip-path="url(#pa006fabf82)" style="fill: none; stroke: #000000; stroke-opacity: 0.25; stroke-width: 1.5; stroke-linecap: square"/>
   </g>
   <g id="line2d_90">
    <path d="M 56.433382 189.401445 
L 63.509298 188.251327 
L 70.585215 191.716741 
L 77.661132 173.146175 
L 84.737048 170.377983 
L 91.812965 160.061488 
L 98.888881 150.799413 
L 105.964798 140.736609 
L 113.040715 129.817907 
L 120.116631 123.097432 
L 127.192548 112.642022 
L 134.268465 100.219727 
L 141.344381 91.939113 
L 148.420298 95.147074 
L 155.496214 73.785966 
" clip-path="url(#pa006fabf82)" style="fill: none; stroke: #000000; stroke-opacity: 0.25; stroke-width: 1.5; stroke-linecap: square"/>
   </g>
   <g id="line2d_91">
    <path d="M 56.433382 189.534368 
L 63.509298 188.652217 
L 70.585215 189.230173 
L 77.661132 174.705989 
L 84.737048 172.341274 
L 91.812965 159.08939 
L 98.888881 145.304228 
L 105.964798 139.009835 
L 113.040715 129.035932 
L 120.116631 113.585331 
L 127.192548 107.51534 
L 134.268465 93.756042 
L 141.344381 89.326312 
L 148.420298 77.303911 
L 155.496214 61.835272 
" clip-path="url(#pa006fabf82)" style="fill: none; stroke: #000000; stroke-opacity: 0.25; stroke-width: 1.5; stroke-linecap: square"/>
   </g>
   <g id="line2d_92">
    <path d="M 56.433382 189.283444 
L 63.509298 189.203793 
L 70.585215 195.484451 
L 77.661132 182.185717 
L 84.737048 168.381637 
L 91.812965 158.203247 
L 98.888881 152.283663 
L 105.964798 146.396183 
L 113.040715 137.71316 
L 120.116631 109.17918 
L 127.192548 108.786763 
L 134.268465 105.314082 
L 141.344381 90.923321 
L 148.420298 76.936366 
L 155.496214 79.45173 
" clip-path="url(#pa006fabf82)" style="fill: none; stroke: #000000; stroke-opacity: 0.25; stroke-width: 1.5; stroke-linecap: square"/>
   </g>
   <g id="line2d_93">
    <path d="M 56.433382 189.355285 
L 63.509298 187.614943 
L 70.585215 192.967528 
L 77.661132 175.129913 
L 84.737048 164.754038 
L 91.812965 159.388419 
L 98.888881 145.073098 
L 105.964798 132.653702 
L 113.040715 125.08885 
L 120.116631 114.347029 
L 127.192548 105.903718 
L 134.268465 95.712761 
L 141.344381 74.417792 
L 148.420298 69.21003 
L 155.496214 64.339986 
" clip-path="url(#pa006fabf82)" style="fill: none; stroke: #000000; stroke-opacity: 0.25; stroke-width: 1.5; stroke-linecap: square"/>
   </g>
   <g id="line2d_94">
    <path d="M 56.433382 189.35676 
L 63.509298 185.444181 
L 70.585215 197.809438 
L 77.661132 179.848239 
L 84.737048 167.540795 
L 91.812965 152.496523 
L 98.888881 143.10666 
L 105.964798 131.332163 
L 113.040715 123.68281 
L 120.116631 109.810718 
L 127.192548 100.891082 
L 134.268465 84.695303 
L 141.344381 78.00177 
L 148.420298 62.229023 
L 155.496214 69.499219 
" clip-path="url(#pa006fabf82)" style="fill: none; stroke: #000000; stroke-opacity: 0.25; stroke-width: 1.5; stroke-linecap: square"/>
   </g>
   <g id="line2d_95">
    <path d="M 56.433382 189.372457 
L 63.509298 183.047091 
L 70.585215 191.759317 
L 77.661132 172.956274 
L 84.737048 165.069341 
L 91.812965 151.715617 
L 98.888881 135.857199 
L 105.964798 125.79467 
L 113.040715 124.785184 
L 120.116631 107.500213 
L 127.192548 98.088447 
L 134.268465 85.038788 
L 141.344381 71.645913 
L 148.420298 61.808581 
L 155.496214 58.065416 
" clip-path="url(#pa006fabf82)" style="fill: none; stroke: #000000; stroke-opacity: 0.25; stroke-width: 1.5; stroke-linecap: square"/>
   </g>
   <g id="line2d_96">
    <path d="M 56.433382 189.885528 
L 63.509298 185.623186 
L 70.585215 192.499629 
L 77.661132 179.756331 
L 84.737048 161.101843 
L 91.812965 153.998061 
L 98.888881 139.385301 
L 105.964798 129.156671 
L 113.040715 117.676857 
L 120.116631 111.831877 
L 127.192548 86.215182 
L 134.268465 79.027492 
L 141.344381 70.891657 
L 148.420298 54.392433 
L 155.496214 60.993695 
" clip-path="url(#pa006fabf82)" style="fill: none; stroke: #000000; stroke-opacity: 0.25; stroke-width: 1.5; stroke-linecap: square"/>
   </g>
   <g id="line2d_97">
    <path d="M 56.433382 189.312932 
L 63.509298 184.865622 
L 70.585215 187.660261 
L 77.661132 174.595541 
L 84.737048 159.302873 
L 91.812965 155.432898 
L 98.888881 135.2855 
L 105.964798 136.991791 
L 113.040715 125.448607 
L 120.116631 105.526265 
L 127.192548 93.906929 
L 134.268465 79.656703 
L 141.344381 66.782309 
L 148.420298 55.273856 
L 155.496214 57.334276 
" clip-path="url(#pa006fabf82)" style="fill: none; stroke: #000000; stroke-opacity: 0.25; stroke-width: 1.5; stroke-linecap: square"/>
   </g>
   <g id="line2d_98">
    <path d="M 56.433382 189.727138 
L 63.509298 184.269099 
L 70.585215 195.927165 
L 77.661132 172.027715 
L 84.737048 160.618552 
L 91.812965 147.748417 
L 98.888881 141.366632 
L 105.964798 125.835026 
L 113.040715 116.893145 
L 120.116631 102.66148 
L 127.192548 95.230533 
L 134.268465 74.446451 
L 141.344381 65.239511 
L 148.420298 51.429 
L 155.496214 79.32175 
" clip-path="url(#pa006fabf82)" style="fill: none; stroke: #000000; stroke-opacity: 0.25; stroke-width: 1.5; stroke-linecap: square"/>
   </g>
   <g id="line2d_99">
    <path d="M 56.433382 189.305177 
L 63.509298 189.653195 
L 70.585215 179.372053 
L 77.661132 175.445025 
L 84.737048 159.823411 
L 91.812965 165.600868 
L 98.888881 164.599577 
L 105.964798 138.053824 
L 113.040715 139.596274 
L 120.116631 111.882649 
L 127.192548 118.00996 
L 134.268465 89.490843 
L 141.344381 89.291234 
L 148.420298 68.834068 
L 155.496214 62.055676 
" clip-path="url(#pa006fabf82)" style="fill: none; stroke: #000000; stroke-opacity: 0.25; stroke-width: 1.5; stroke-linecap: square"/>
   </g>
   <g id="line2d_100">
    <path d="M 56.433382 189.537168 
L 63.509298 187.967143 
L 70.585215 186.542236 
L 77.661132 170.508788 
L 84.737048 162.203044 
L 91.812965 161.550884 
L 98.888881 150.065604 
L 105.964798 136.305523 
L 113.040715 118.130809 
L 120.116631 106.080305 
L 127.192548 98.718506 
L 134.268465 85.909436 
L 141.344381 72.111711 
L 148.420298 57.154801 
L 155.496214 58.619283 
" clip-path="url(#pa006fabf82)" style="fill: none; stroke: #000000; stroke-opacity: 0.25; stroke-width: 1.5; stroke-linecap: square"/>
   </g>
   <g id="line2d_101">
    <path d="M 56.433382 190.517623 
L 63.509298 186.486239 
L 70.585215 177.836784 
L 77.661132 172.166088 
L 84.737048 162.073214 
L 91.812965 145.630165 
L 98.888881 153.306046 
L 105.964798 132.046324 
L 113.040715 129.54021 
L 120.116631 107.108518 
L 127.192548 95.836529 
L 134.268465 80.068083 
L 141.344381 66.917784 
L 148.420298 56.016008 
L 155.496214 60.120894 
" clip-path="url(#pa006fabf82)" style="fill: none; stroke: #000000; stroke-opacity: 0.25; stroke-width: 1.5; stroke-linecap: square"/>
   </g>
   <g id="line2d_102">
    <path d="M 56.433382 189.751249 
L 63.509298 189.515005 
L 70.585215 173.425062 
L 77.661132 169.464329 
L 84.737048 158.808197 
L 91.812965 147.077147 
L 98.888881 137.393174 
L 105.964798 125.406199 
L 113.040715 113.672656 
L 120.116631 107.905916 
L 127.192548 90.931288 
L 134.268465 81.662032 
L 141.344381 67.162656 
L 148.420298 54.317332 
L 155.496214 62.629489 
" clip-path="url(#pa006fabf82)" style="fill: none; stroke: #000000; stroke-opacity: 0.25; stroke-width: 1.5; stroke-linecap: square"/>
   </g>
   <g id="line2d_103">
    <path d="M 56.433382 189.6079 
L 63.509298 187.896905 
L 70.585215 178.044547 
L 77.661132 165.117338 
L 84.737048 155.814525 
L 91.812965 145.815092 
L 98.888881 133.617634 
L 105.964798 126.347743 
L 113.040715 115.296212 
L 120.116631 97.486843 
L 127.192548 98.306654 
L 134.268465 80.217955 
L 141.344381 65.890112 
L 148.420298 57.707044 
L 155.496214 79.515374 
" clip-path="url(#pa006fabf82)" style="fill: none; stroke: #000000; stroke-opacity: 0.25; stroke-width: 1.5; stroke-linecap: square"/>
   </g>
   <g id="line2d_104">
    <path d="M 56.433382 190.144621 
L 63.509298 188.692867 
L 70.585215 178.600904 
L 77.661132 170.449753 
L 84.737048 155.75929 
L 91.812965 151.644709 
L 98.888881 133.392733 
L 105.964798 123.435519 
L 113.040715 120.48184 
L 120.116631 97.526344 
L 127.192548 89.443216 
L 134.268465 77.1413 
L 141.344381 73.113804 
L 148.420298 58.642458 
L 155.496214 62.594366 
" clip-path="url(#pa006fabf82)" style="fill: none; stroke: #000000; stroke-opacity: 0.25; stroke-width: 1.5; stroke-linecap: square"/>
   </g>
   <g id="line2d_105">
    <path d="M 56.433382 191.02338 
L 63.509298 187.75595 
L 70.585215 179.834848 
L 77.661132 172.995096 
L 84.737048 158.987821 
L 91.812965 143.967011 
L 98.888881 131.834698 
L 105.964798 118.207446 
L 113.040715 124.903239 
L 120.116631 98.845163 
L 127.192548 87.795732 
L 134.268465 69.540309 
L 141.344381 83.649491 
L 148.420298 53.656966 
L 155.496214 58.867661 
" clip-path="url(#pa006fabf82)" style="fill: none; stroke: #000000; stroke-opacity: 0.25; stroke-width: 1.5; stroke-linecap: square"/>
   </g>
   <g id="line2d_106">
    <path d="M 56.433382 191.199299 
L 63.509298 189.870604 
L 70.585215 172.693417 
L 77.661132 168.445146 
L 84.737048 156.085354 
L 91.812965 143.347721 
L 98.888881 130.759122 
L 105.964798 118.213682 
L 113.040715 111.400275 
L 120.116631 94.639487 
L 127.192548 89.927842 
L 134.268465 75.84829 
L 141.344381 69.74733 
L 148.420298 55.196838 
L 155.496214 51.246321 
" clip-path="url(#pa006fabf82)" style="fill: none; stroke: #000000; stroke-opacity: 0.25; stroke-width: 1.5; stroke-linecap: square"/>
   </g>
   <g id="line2d_107">
    <path d="M 56.433382 190.082298 
L 63.509298 188.847753 
L 70.585215 182.543288 
L 77.661132 163.447306 
L 84.737048 155.192114 
L 91.812965 138.896659 
L 98.888881 139.054926 
L 105.964798 123.788078 
L 113.040715 108.746514 
L 120.116631 96.087407 
L 127.192548 78.756175 
L 134.268465 73.325425 
L 141.344381 81.685352 
L 148.420298 51.384199 
L 155.496214 65.439694 
" clip-path="url(#pa006fabf82)" style="fill: none; stroke: #000000; stroke-opacity: 0.25; stroke-width: 1.5; stroke-linecap: square"/>
   </g>
   <g id="LineCollection_1">
    <path d="M 56.433382 187.80794 
L 56.433382 187.008956 
" clip-path="url(#pa006fabf82)" style="fill: none; stroke: #ff0000; stroke-width: 3"/>
    <path d="M 67.440363 171.550061 
L 67.440363 169.914156 
" clip-path="url(#pa006fabf82)" style="fill: none; stroke: #ff0000; stroke-width: 3"/>
    <path d="M 78.447344 161.703093 
L 78.447344 159.714051 
" clip-path="url(#pa006fabf82)" style="fill: none; stroke: #ff0000; stroke-width: 3"/>
    <path d="M 89.454326 142.536368 
L 89.454326 140.141383 
" clip-path="url(#pa006fabf82)" style="fill: none; stroke: #ff0000; stroke-width: 3"/>
    <path d="M 100.461307 132.830589 
L 100.461307 130.105097 
" clip-path="url(#pa006fabf82)" style="fill: none; stroke: #ff0000; stroke-width: 3"/>
    <path d="M 111.468289 111.126757 
L 111.468289 108.093934 
" clip-path="url(#pa006fabf82)" style="fill: none; stroke: #ff0000; stroke-width: 3"/>
    <path d="M 122.47527 100.325426 
L 122.47527 97.047305 
" clip-path="url(#pa006fabf82)" style="fill: none; stroke: #ff0000; stroke-width: 3"/>
    <path d="M 133.482252 77.841672 
L 133.482252 74.397491 
" clip-path="url(#pa006fabf82)" style="fill: none; stroke: #ff0000; stroke-width: 3"/>
    <path d="M 144.489233 65.431486 
L 144.489233 61.945479 
" clip-path="url(#pa006fabf82)" style="fill: none; stroke: #ff0000; stroke-width: 3"/>
    <path d="M 155.496214 60.663915 
L 155.496214 57.197705 
" clip-path="url(#pa006fabf82)" style="fill: none; stroke: #ff0000; stroke-width: 3"/>
   </g>
   <g id="line2d_108">
    <path d="M 56.433382 187.408448 
L 67.440363 170.732108 
L 78.447344 160.708572 
L 89.454326 141.338876 
L 100.461307 131.467843 
L 111.468289 109.610346 
L 122.47527 98.686366 
L 133.482252 76.119582 
L 144.489233 63.688482 
L 155.496214 58.93081 
" clip-path="url(#pa006fabf82)" style="fill: none; stroke: #ff0000; stroke-width: 3; stroke-linecap: square"/>
   </g>
   <g id="patch_3">
    <path d="M 51.48024 206.99476 
L 51.48024 4.917668 
" style="fill: none; stroke: #000000; stroke-width: 0.8; stroke-linejoin: miter; stroke-linecap: square"/>
   </g>
   <g id="patch_4">
    <path d="M 161.72976 206.99476 
L 161.72976 4.917668 
" style="fill: none; stroke: #000000; stroke-width: 0.8; stroke-linejoin: miter; stroke-linecap: square"/>
   </g>
   <g id="patch_5">
    <path d="M 51.48024 206.99476 
L 161.72976 206.99476 
" style="fill: none; stroke: #000000; stroke-width: 0.8; stroke-linejoin: miter; stroke-linecap: square"/>
   </g>
   <g id="patch_6">
    <path d="M 51.48024 4.917668 
L 161.72976 4.917668 
" style="fill: none; stroke: #000000; stroke-width: 0.8; stroke-linejoin: miter; stroke-linecap: square"/>
   </g>
  </g>
 </g>
 <defs>
  <clipPath id="pa006fabf82">
   <rect x="51.48024" y="4.917668" width="110.24952" height="202.077092"/>
  </clipPath>
 </defs>
</svg>
